<?xml version="1.0" encoding="UTF-8" standalone="no"?>
<svg
   xmlns:dc="http://purl.org/dc/elements/1.1/"
   xmlns:cc="http://creativecommons.org/ns#"
   xmlns:rdf="http://www.w3.org/1999/02/22-rdf-syntax-ns#"
   xmlns:svg="http://www.w3.org/2000/svg"
   xmlns="http://www.w3.org/2000/svg"
   xmlns:sodipodi="http://sodipodi.sourceforge.net/DTD/sodipodi-0.dtd"
   xmlns:inkscape="http://www.inkscape.org/namespaces/inkscape"
   width="105.764"
   height="49.171"
   viewBox="0 0 105.764 49.171"
   version="1.1"
   id="svg5"
   sodipodi:docname="logo.svg"
   inkscape:version="0.92.4 (5da689c313, 2019-01-14)">
  <metadata
     id="metadata11">
    <rdf:RDF>
      <cc:Work
         rdf:about="">
        <dc:format>image/svg+xml</dc:format>
        <dc:type
           rdf:resource="http://purl.org/dc/dcmitype/StillImage" />
      </cc:Work>
    </rdf:RDF>
  </metadata>
  <defs
     id="defs9" />
  <sodipodi:namedview
     pagecolor="#ffffff"
     bordercolor="#666666"
     borderopacity="1"
     objecttolerance="10"
     gridtolerance="10"
     guidetolerance="10"
     inkscape:pageopacity="0"
     inkscape:pageshadow="2"
     inkscape:window-width="1920"
     inkscape:window-height="1017"
     id="namedview7"
     showgrid="false"
     inkscape:zoom="2.6852237"
     inkscape:cx="-26.254796"
     inkscape:cy="24.585501"
     inkscape:window-x="1352"
     inkscape:window-y="-8"
     inkscape:window-maximized="1"
     inkscape:current-layer="svg5" />
  <path
     fill="#1a0c02"
     d="M40.926 0.0C40.926 0.0 70.173 33.4 70.173 33.4C70.173 33.4 51.955 33.4 51.955 33.4C51.955 33.4 51.955 25.838 51.955 25.838C51.955 25.838 37.881 10.206 37.881 10.206C37.881 10.206 25.514 13.916 25.514 13.916C25.514 13.916 12.989 0.001 12.989 0.001C12.989 0.001 0.0 0.001 0.0 0.001C0.0 0.001 0.0 49.171 0.0 49.171C0.0 49.171 16.7 49.171 16.7 49.171C16.7 49.171 16.737 23.649 16.737 23.649C16.737 23.649 25.513 33.4 25.513 33.4C25.513 33.4 35.254 30.617 35.254 30.617C35.254 30.617 35.254 49.171 35.254 49.171C35.254 49.171 105.763 49.171 105.763 49.171C105.763 49.171 74.021 13.916 74.021 13.916C74.021 13.916 93.239 13.916 93.239 13.916C93.239 13.916 105.764 0.0 105.764 0.0C105.764 0.0 40.926 0.0 40.926 0.0"
     id="path871" />
</svg>
