<svg viewBox="0 0 46 41" xmlns="http://www.w3.org/2000/svg" width="46" height="41">
    <path d="M43.658 21.74c-1.713 2.35-3.42 3.483-4.092 3.527-.215-.728.316-2.613 2.11-4.986 1.796-2.372 3.564-3.393 4.1-3.527.224.483-.412 2.638-2.118 4.986zm-3.055-2.15c-.453-.616-.59-2.57.294-5.41.882-2.847 2.195-4.41 2.66-4.73.372.38.5 2.62-.313 5.422-.81 2.79-2.03 4.444-2.64 4.718zM37.985 7.423c-.328-2.96.25-4.933.55-5.405.486.193 1.508 2.198 1.886 5.085.38 2.886-.078 4.89-.53 5.387-.66-.373-1.564-2.107-1.905-5.067zm2.097 8.078c-.765.003-2.41-1.038-4.173-3.433-1.757-2.396-2.24-4.388-2.224-4.947.527-.08 2.404 1.138 4.167 3.445 1.767 2.312 2.368 4.274 2.23 4.936zM33.107 4.973c-1.96-2.235-2.61-4.184-2.63-4.742.512-.117 2.484.928 4.44 3.08 1.955 2.15 2.722 4.05 2.64 4.727-.758.07-2.49-.826-4.45-3.065zM28.71 26.094c-.515.274-1.253.494-2.214.66-.96.163-2.23.246-3.808.246-1.11 0-2.137-.223-3.083-.67-.945-.446-1.758-1.05-2.437-1.82-.68-.766-1.21-1.666-1.594-2.7C15.19 20.778 15 19.674 15 18.5s.202-2.278.608-3.31c.406-1.033.97-1.934 1.697-2.7.726-.768 1.59-1.374 2.59-1.82 1-.447 2.086-.67 3.258-.67.61 0 1.23.027 1.863.083.633.054 1.23.132 1.793.234.562.102 1.082.22 1.56.353.475.132.87.277 1.182.435-.25.673-.61 1.15-1.078 1.433-.47.282-.97.423-1.5.423-.39 0-.9-.064-1.524-.196-.625-.13-1.273-.196-1.946-.196-1.015 0-1.88.18-2.59.54-.71.36-1.293.823-1.746 1.394-.453.57-.786 1.208-.997 1.912-.21.702-.315 1.397-.315 2.086 0 .688.086 1.383.258 2.087.172.703.472 1.34.903 1.91.43.57 1.008 1.037 1.735 1.396.727.36 1.646.54 2.756.54.36 0 .75-.02 1.17-.06.424-.04.822-.082 1.197-.128l1.313-.188v-3.85H25.24c-.328 0-.636-.06-.925-.188-.29-.125-.54-.294-.75-.507-.212-.212-.38-.463-.504-.754-.125-.29-.187-.602-.187-.93v-.19h4.76c.327 0 .636.063.925.19.29.124.54.292.75.504.21.213.38.464.504.753.125.29.188.6.188.928v4.187c0 .33-.086.657-.258.987-.172.33-.516.63-1.03.904zM8.445 7.924c-.083-.678.683-2.577 2.64-4.728C13.037 1.046 15.01 0 15.523.118c-.023.557-.672 2.506-2.63 4.744-1.96 2.236-3.693 3.128-4.45 3.062zm3.87-.917c.016.556-.468 2.55-2.224 4.947-1.764 2.394-3.408 3.434-4.172 3.434-.14-.66.462-2.623 2.228-4.937 1.764-2.305 3.64-3.523 4.167-3.443zm-6.204 5.37c-.453-.5-.91-2.5-.532-5.387.378-2.886 1.4-4.892 1.887-5.085.3.47.878 2.444.548 5.405-.34 2.96-1.243 4.695-1.903 5.066zm-.713 7.1c-.61-.272-1.833-1.928-2.64-4.72-.815-2.8-.687-5.04-.316-5.42.468.32 1.78 1.884 2.663 4.73.885 2.84.745 4.794.294 5.41zm-1.074.69c1.794 2.374 2.326 4.26 2.11 4.987-.67-.044-2.378-1.177-4.091-3.528C.634 19.278 0 17.124.22 16.638c.538.135 2.306 1.157 4.1 3.53zm6.315 10.68c-.732.18-2.938-.438-5.573-2.353-2.627-1.91-4.038-3.98-3.975-4.572.63-.04 2.86.433 5.59 2.342 2.726 1.903 3.93 3.72 3.958 4.582zm-1.41.815c3.224.796 5.005 2.06 5.327 2.844-.614.44-2.89.66-6.026-.17-3.142-.836-5.204-2.26-5.35-2.84.57-.264 2.82-.625 6.05.166zM6.525 20.215c.168-2.88 1.046-4.918 1.52-5.145.33.452 1.044 2.35.925 5.302-.12 2.946-.9 4.71-1.535 5.127-.485-.457-1.08-2.404-.91-5.285zm6.506 7.363c1.62 2.915 1.91 5.087 1.56 5.864-.74-.158-2.45-1.68-3.98-4.56-1.528-2.88-1.898-5.365-1.575-5.87.575.242 2.375 1.654 3.995 4.566zm8.496 8.56c-.42.628-2.464 1.656-5.692 2.007-3.227.345-5.66-.243-6.005-.736.436-.45 2.415-1.594 5.707-2.013 3.3-.42 5.41.117 5.99.74zm-6.797-6.932c.5-.012 2.256.467 4.366 2.187 2.11 1.73 3.018 3.336 3.012 4.078-.585.135-2.318-.468-4.348-2.193-2.037-1.73-3.1-3.557-3.03-4.07zm8.055 7.186l-4.044 4.495-.945-.843 4.737-3.878.253.226zm.253-4.744c.335.094.898.824.928 1.82.028.993-.463 1.645-.83 1.788-.44-.163-.943-.8-.934-1.816.01-1.015.587-1.65.836-1.792zm5.166 8.506l-.946.846-4.043-4.496.252-.223 4.737 3.874zm-4.313-4.57c-.005-.74.903-2.348 3.014-4.08 2.11-1.72 3.867-2.2 4.367-2.185.07.51-.993 2.34-3.03 4.07-2.03 1.727-3.764 2.326-4.35 2.194zm.582.667c.58-.622 2.69-1.16 5.99-.742 3.292.42 5.27 1.566 5.71 2.015-.345.492-2.78 1.08-6.006.737-3.228-.352-5.273-1.38-5.694-2.01zm6.972-1.63c.323-.786 2.104-2.05 5.326-2.845 3.23-.79 5.48-.432 6.05-.166-.147.578-2.208 2.003-5.35 2.84-3.134.828-5.412.61-6.026.17zm9.49-6.012c-2.634 1.915-4.84 2.533-5.573 2.348.028-.858 1.233-2.678 3.96-4.578 2.727-1.91 4.958-2.383 5.59-2.343.06.592-1.35 2.663-3.976 4.573zm-5.545.388c-1.53 2.878-3.24 4.402-3.98 4.558-.35-.776-.06-2.95 1.56-5.864 1.62-2.91 3.42-4.322 3.995-4.566.322.506-.047 2.993-1.576 5.872zm4.085-8.668c.17 2.88-.426 4.827-.91 5.286-.635-.416-1.415-2.184-1.534-5.13-.118-2.95.596-4.85.925-5.302.473.23 1.352 2.265 1.52 5.146z" fill="#ecc485" class="svg-logo"/>
</svg>
