<svg xmlns="http://www.w3.org/2000/svg" xmlns:xlink="http://www.w3.org/1999/xlink" viewBox="0 0 68.5 66.3">
   <defs>
      <path id="a" d="M40.654 33.43c3.244 4.555 10.377 5.223 14.7 8.7-5.802-1.097-9.42-4.38-15.3-5.4 1.643 4.693 6.032 13.5 10.8 17.7 1.397 1.23 4.01 2.897 6 3 7.49.386 5-10.117 6.316-13.792 1.034-2.89 8.568-10.167 3.883-14.108-1.656-1.393-3.85-1.93-6.29-1.93-7.098 0-16.25 4.556-20.11 5.83" />
   </defs>
   <clipPath id="b">
      <use xlink:href="#a" overflow="visible" width="100%" height="100%" />
   </clipPath>
   <linearGradient id="c" gradientUnits="userSpaceOnUse" x1="-53.597" y1="721.586" x2="-52.597" y2="721.586" gradientTransform="matrix(28.52 0 0 -28.52 1568.697 20623.084)">
      <stop offset="0" stop-color="#D21D54" />
      <stop offset=".329" stop-color="#D61F58" />
      <stop offset=".902" stop-color="#E32365" />
      <stop offset="1" stop-color="#E62467" />
   </linearGradient>
   <path class="specialLeaf" clip-path="url(#b)" d="M40.054 27.6h31.684v30.216H40.054z" fill="url(#c)" />
   <defs>
      <path id="d"
            d="M24.688.73c-2.433 1.54-4.07 6.97-6.9 8.7-2.87 1.753-7.744 1.593-9.3 3.9-1.557 2.308-1.09 5.887.3 7.8 4.22 5.81 16.783 5.622 22.8 9.6-1.024-6.483-4.833-11.418-8.1-16.5 4.89 3.208 5.85 10.35 10.5 13.8-.807-7.91 4.707-18.215.3-24.9C33.325 1.674 30.253 0 27.464 0c-1 0-1.96.215-2.777.73" />
   </defs>
   <clipPath id="e">
      <use xlink:href="#d" overflow="visible" width="100%" height="100%" />
   </clipPath>
   <linearGradient id="f" gradientUnits="userSpaceOnUse" x1="-52.128" y1="719.368" x2="-51.127" y2="719.368" gradientTransform="matrix(0 -72.056 -72.056 0 51857.28 -3686.714)">
      <stop offset="0" stop-color="#85BE41" />
      <stop offset=".331" stop-color="#8FC246" />
      <stop offset=".927" stop-color="#A6CF5B" />
      <stop offset="1" stop-color="#AAD15F" />
   </linearGradient>
   <path class="leaf4" clip-path="url(#e)" d="M6.93 0h31.765v30.73H6.93z" fill="url(#f)" />
   <g>
      <defs>
         <path id="g" d="M39.087 4.03c-5.386 5.387-.428 15.696-1.8 25.8 4.922-2.278 9.336-9.262 12.6-13.2-2.057 5.944-7.07 8.932-9.6 14.4 7.815-3.227 24.405-2.054 24.9-12.3.416-8.623-8.446-5.474-13.2-9.3-2-1.608-3.126-5.906-5.7-6.9-.602-.232-1.278-.332-1.972-.332-2.057 0-4.278.882-5.228 1.833" />
      </defs>
      <clipPath id="h">
         <use xlink:href="#g" overflow="visible" width="100%" height="100%" />
      </clipPath>
      <linearGradient id="i" gradientUnits="userSpaceOnUse" x1="-52.127" y1="719.401" x2="-51.128" y2="719.401" gradientTransform="matrix(0 -72.056 -72.056 0 51886.53 -3686.714)">
         <stop offset="0" stop-color="#85BE41" />
         <stop offset=".331" stop-color="#8FC246" />
         <stop offset=".927" stop-color="#A6CF5B" />
         <stop offset="1" stop-color="#AAD15F" />
      </linearGradient>
      <path class="leaf1" clip-path="url(#h)" d="M33.7 2.198h31.903V31.03H33.7z" fill="url(#i)" />
   </g>
   <g>
      <defs>
         <path id="j"
               d="M32.788 54.73c-.852-5.416.56-11 0-16.2-3.925 2.28-5.91 5.563-8.7 9.3-2.657 3.556-5.994 7.442-5.4 12.6.428 3.725 4.486 6.574 9 5.7 2.91-.565 4.448-3.635 7.8-3.6 2.174.022 4.25 2.27 6.9 2.4 4.305.21 6.942-2.63 6.3-7.5-.915-6.936-9.427-16.423-13.2-19.5-2.176 4.325-1.14 11.86-2.7 16.8" />
      </defs>
      <clipPath id="k">
         <use xlink:href="#j" overflow="visible" width="100%" height="100%" />
      </clipPath>
      <linearGradient id="l" gradientUnits="userSpaceOnUse" x1="-52.127" y1="719.381" x2="-51.126" y2="719.381" gradientTransform="matrix(0 -72.056 -72.056 0 51869.22 -3686.714)">
         <stop offset="0" stop-color="#85BE41" />
         <stop offset=".331" stop-color="#8FC246" />
         <stop offset=".927" stop-color="#A6CF5B" />
         <stop offset="1" stop-color="#AAD15F" />
      </linearGradient>
      <path class="leaf2" clip-path="url(#k)" d="M18.094 37.93H49.33v29.074H18.094z" fill="url(#l)" />
   </g>
   <g>
      <defs>
         <path id="m"
               d="M.088 32.83c.554 3.643 6.21 4.875 7.2 10.5.5 2.834-.214 6.258.6 8.1 1.087 2.462 6.045 3.52 8.1 2.7 7.413-2.966 9.402-14.46 15-20.1-6.028.03-11.216 1.673-17.4 3.9 3.648-3.652 11.215-3.384 15.6-6.3-5.292-1.2-12.492-6.28-19.2-6.9a12.582 12.582 0 0 0-1.145-.053c-4.997 0-9.534 3.035-8.755 8.153" />
      </defs>
      <clipPath id="n">
         <use xlink:href="#m" overflow="visible" width="100%" height="100%" />
      </clipPath>
      <linearGradient id="o" gradientUnits="userSpaceOnUse" x1="-52.127" y1="719.387" x2="-51.127" y2="719.387" gradientTransform="matrix(0 -72.056 -72.056 0 51851.03 -3686.714)">
         <stop offset="0" stop-color="#85BE41" />
         <stop offset=".331" stop-color="#8FC246" />
         <stop offset=".927" stop-color="#A6CF5B" />
         <stop offset="1" stop-color="#AAD15F" />
      </linearGradient>
      <path class="leaf3" clip-path="url(#n)" d="M-.69 24.677h31.677V54.95H-.69z" fill="url(#o)" />
   </g>
</svg>